<svg width="257" height="98" viewBox="0 0 257 98" fill="none" xmlns="http://www.w3.org/2000/svg">
<path d="M70.3918 75.4396C70.3924 75.4309 70.3903 75.4222 70.3857 75.4147C70.3811 75.4073 70.3742 75.4015 70.3661 75.3982C70.3579 75.3949 70.349 75.3942 70.3404 75.3963C70.3319 75.3983 70.3242 75.4031 70.3186 75.4097C61.4094 86.2223 50.1418 95.2722 35.8369 97.375C29.7371 98.2712 23.3261 98.3027 17.3811 96.814C2.0542 92.9753 -1.85532 79.046 0.742705 65.1963C2.199 57.4409 5.28967 50.5218 9.06438 43.2975C13.35 35.0989 18.4612 27.1542 24.5976 20.0742C31.443 12.176 39.8812 5.27854 49.8705 1.83148C60.1179 -1.7052 73.3194 -0.697806 76.182 12.0847C76.4106 13.107 76.4894 14.5188 76.4184 16.3201C76.0888 24.6365 71.3338 33.3081 66.1827 39.6346C62.8623 43.7124 59.3423 47.7054 55.2264 51.0048C53.5521 52.3474 51.0239 54.1315 48.8154 54.2179C45.976 54.329 44.1402 51.4662 45.0173 48.8871C45.5266 47.3868 46.8598 46.3761 48.2961 45.7338C54.5889 42.9257 60.1861 38.6787 64.5949 33.4857C66.414 31.3431 67.7655 28.8454 68.8606 26.2115C71.7016 19.3871 73.8869 5.49927 62.0235 5.57893C56.9589 5.61378 51.7463 10.3537 48.4459 13.7344C43.0351 19.2809 38.2235 25.5261 33.813 31.8825C27.3737 41.1615 21.6284 50.092 18.0069 60.4249C15.6951 67.0203 14.0557 74.9218 16.2127 81.7578C18.8041 89.9714 26.8045 92.1455 34.5686 91.7522C51.3751 90.9008 65.1724 75.3035 73.7221 62.5525C74.0861 62.0093 74.4145 61.4124 74.7074 60.7618C75.9113 58.0898 76.8866 56.0849 77.6333 54.7473C87.5006 37.0722 97.3967 19.3594 107.322 1.60908C107.332 1.591 107.346 1.57593 107.364 1.56543C107.381 1.55492 107.401 1.54937 107.422 1.54934H123.023C123.091 1.54934 123.108 1.57866 123.076 1.6373C122.826 2.09646 122.449 2.77359 121.948 3.66869C113.333 19.0911 104.721 34.5141 96.1124 49.9377C92.3128 56.7455 88.8127 63.7458 85.8734 70.9652C84.8992 73.3573 84.1037 75.8036 83.4868 78.3041C83.1672 79.5975 82.9936 80.6879 82.9659 81.5753C82.8244 86.0248 84.6901 90.6103 89.4634 91.7621C96.9862 93.5778 105.434 87.3923 110.218 82.3404C115.549 76.7092 119.548 70.0657 123.481 63.0438C126.181 58.2231 128.119 54.7373 129.294 52.5864C130.001 51.293 130.536 50.3232 130.899 49.6771C139.911 33.6428 148.921 17.6179 157.931 1.60245C157.939 1.58646 157.952 1.57308 157.968 1.56372C157.984 1.55437 158.002 1.5494 158.021 1.54934H173.657C173.71 1.54934 173.724 1.57258 173.699 1.61905C164.638 17.8326 155.596 34.0549 146.572 50.2862C143.893 55.1035 141.386 60.0072 139.049 64.9972C136.837 69.7172 134.908 74.487 133.848 79.4294C132.789 84.3618 134.425 90.6087 140.086 91.8268C148.869 93.7188 157.773 85.7642 163.044 79.7945C166.114 76.317 168.956 72.663 171.57 68.8326C171.714 68.6213 171.805 68.3873 171.843 68.1306C173.081 59.7959 175.814 52.0819 179.709 44.6285C187.243 30.2046 196.885 16.2321 210.747 7.12571C215.269 4.15331 220.303 1.8016 225.571 0.608325C232.175 -0.888665 240.439 0.186778 244.779 5.9789C249.403 12.1478 248.291 20.3215 244.886 26.7094C234.182 46.7877 213.303 52.764 192.178 53.9424C192.121 53.9457 192.081 53.9728 192.056 54.0237C190.166 57.9736 188.699 62.0746 187.656 66.3266C185.512 75.0712 185.818 86.2837 195.735 90.2767C198.215 91.2747 200.816 91.7798 203.537 91.792C215.682 91.8418 225.571 85.5601 233.651 77.0544C240.971 69.3504 246.948 60.4232 252.194 51.2206C252.563 50.5733 252.885 50.1446 253.159 49.9343C254.342 49.0249 256.197 49.4763 256.792 50.8405C257.213 51.8014 256.947 52.5682 256.415 53.5158C252.752 60.0504 248.65 66.2989 244.11 72.2614C235.434 83.6598 223.73 94.4939 209.061 97.0464C202.154 98.248 194.543 98.3475 187.736 96.4273C178.607 93.8516 172.842 86.9276 171.818 77.5357C171.817 77.522 171.811 77.509 171.802 77.4985C171.793 77.4879 171.781 77.4804 171.768 77.4768C171.755 77.4732 171.74 77.4737 171.727 77.4783C171.714 77.4829 171.703 77.4914 171.695 77.5025C166.88 84.0946 160.923 90.6502 153.712 94.6316C148.429 97.5481 142.735 98.5047 136.631 97.5011C125.433 95.6623 119.866 87.7441 120.818 76.5333C120.818 76.524 120.816 76.5147 120.811 76.5068C120.806 76.499 120.798 76.493 120.789 76.4898C120.781 76.4866 120.771 76.4864 120.762 76.4892C120.753 76.4919 120.745 76.4975 120.74 76.5051C114.091 86.5193 104.093 97.9924 90.8198 97.8878C83.1156 97.8264 75.3149 95.1793 71.8964 87.7176C70.1738 83.9585 69.9491 79.5572 70.3918 75.4396ZM226.613 8.17128C221.422 11.6017 216.644 17.1134 213.077 21.606C206.27 30.178 200.16 39.4106 194.643 48.8572C194.612 48.9103 194.627 48.9336 194.688 48.9269C212.118 47.1163 230.842 39.3625 237.571 21.7156C238.608 18.9954 239.25 16.101 239.034 13.1784C238.771 9.65666 236.759 6.63778 233.047 6.23117C230.717 5.97724 228.469 6.94647 226.613 8.17128Z" fill="#FF3227"/>
</svg>
